<?xml version="1.0" encoding="UTF-8" standalone="no"?>
<!DOCTYPE svg PUBLIC "-//W3C//DTD SVG 1.1//EN"
 "http://www.w3.org/Graphics/SVG/1.1/DTD/svg11.dtd">
<!-- Generated by graphviz version 2.50.0 (20211204.2007)
 -->
<!-- Title: test Pages: 1 -->
<svg width="1520pt" height="1617pt"
 viewBox="0.00 0.00 1519.50 1617.00" xmlns="http://www.w3.org/2000/svg" xmlns:xlink="http://www.w3.org/1999/xlink">
<g id="graph0" class="graph" transform="scale(1 1) rotate(0) translate(4 1613)">
<title>test</title>
<polygon fill="white" stroke="transparent" points="-4,4 -4,-1613 1515.5,-1613 1515.5,4 -4,4"/>
<!-- y1996 -->
<g id="node1" class="node">
<title>y1996</title>
<text text-anchor="middle" x="14.5" y="-1525.5" font-family="Times New Roman,serif" font-size="10.00">1996</text>
</g>
<!-- y1998 -->
<g id="node2" class="node">
<title>y1998</title>
<text text-anchor="middle" x="14.5" y="-1397.5" font-family="Times New Roman,serif" font-size="10.00">1998</text>
</g>
<!-- y1996&#45;&gt;y1998 -->
<!-- y2001 -->
<g id="node3" class="node">
<title>y2001</title>
<text text-anchor="middle" x="14.5" y="-1328" font-family="Times New Roman,serif" font-size="10.00">2001</text>
</g>
<!-- y1998&#45;&gt;y2001 -->
<!-- y2004 -->
<g id="node4" class="node">
<title>y2004</title>
<text text-anchor="middle" x="14.5" y="-1248" font-family="Times New Roman,serif" font-size="10.00">2004</text>
</g>
<!-- y2001&#45;&gt;y2004 -->
<!-- y2005 -->
<g id="node5" class="node">
<title>y2005</title>
<text text-anchor="middle" x="14.5" y="-1158.5" font-family="Times New Roman,serif" font-size="10.00">2005</text>
</g>
<!-- y2004&#45;&gt;y2005 -->
<!-- y2006 -->
<g id="node6" class="node">
<title>y2006</title>
<text text-anchor="middle" x="14.5" y="-1031" font-family="Times New Roman,serif" font-size="10.00">2006</text>
</g>
<!-- y2005&#45;&gt;y2006 -->
<!-- y2007 -->
<g id="node7" class="node">
<title>y2007</title>
<text text-anchor="middle" x="14.5" y="-890.5" font-family="Times New Roman,serif" font-size="10.00">2007</text>
</g>
<!-- y2006&#45;&gt;y2007 -->
<!-- y2008 -->
<g id="node8" class="node">
<title>y2008</title>
<text text-anchor="middle" x="14.5" y="-770.5" font-family="Times New Roman,serif" font-size="10.00">2008</text>
</g>
<!-- y2007&#45;&gt;y2008 -->
<!-- y2009 -->
<g id="node9" class="node">
<title>y2009</title>
<text text-anchor="middle" x="14.5" y="-684.5" font-family="Times New Roman,serif" font-size="10.00">2009</text>
</g>
<!-- y2008&#45;&gt;y2009 -->
<!-- y2012 -->
<g id="node10" class="node">
<title>y2012</title>
<text text-anchor="middle" x="14.5" y="-605.5" font-family="Times New Roman,serif" font-size="10.00">2012</text>
</g>
<!-- y2009&#45;&gt;y2012 -->
<!-- y2013 -->
<g id="node11" class="node">
<title>y2013</title>
<text text-anchor="middle" x="14.5" y="-498.5" font-family="Times New Roman,serif" font-size="10.00">2013</text>
</g>
<!-- y2012&#45;&gt;y2013 -->
<!-- y2014 -->
<g id="node12" class="node">
<title>y2014</title>
<text text-anchor="middle" x="14.5" y="-384.5" font-family="Times New Roman,serif" font-size="10.00">2014</text>
</g>
<!-- y2013&#45;&gt;y2014 -->
<!-- y2015 -->
<g id="node13" class="node">
<title>y2015</title>
<text text-anchor="middle" x="14.5" y="-298.5" font-family="Times New Roman,serif" font-size="10.00">2015</text>
</g>
<!-- y2014&#45;&gt;y2015 -->
<!-- y2016 -->
<g id="node14" class="node">
<title>y2016</title>
<text text-anchor="middle" x="14.5" y="-240.5" font-family="Times New Roman,serif" font-size="10.00">2016</text>
</g>
<!-- y2015&#45;&gt;y2016 -->
<!-- y2017 -->
<g id="node15" class="node">
<title>y2017</title>
<text text-anchor="middle" x="14.5" y="-182.5" font-family="Times New Roman,serif" font-size="10.00">2017</text>
</g>
<!-- y2016&#45;&gt;y2017 -->
<!-- y2018 -->
<g id="node16" class="node">
<title>y2018</title>
<text text-anchor="middle" x="14.5" y="-124.5" font-family="Times New Roman,serif" font-size="10.00">2018</text>
</g>
<!-- y2017&#45;&gt;y2018 -->
<!-- y2019 -->
<g id="node17" class="node">
<title>y2019</title>
<text text-anchor="middle" x="14.5" y="-66.5" font-family="Times New Roman,serif" font-size="10.00">2019</text>
</g>
<!-- y2018&#45;&gt;y2019 -->
<!-- y2020 -->
<g id="node18" class="node">
<title>y2020</title>
<text text-anchor="middle" x="14.5" y="-8.5" font-family="Times New Roman,serif" font-size="10.00">2020</text>
</g>
<!-- y2019&#45;&gt;y2020 -->
<!-- n33 -->
<g id="node19" class="node">
<title>n33</title>
<g id="a_node19"><a xlink:href="33" xlink:title="34,Ciuonzo D 2014&#10;">
<ellipse fill="lightgrey" stroke="black" cx="136.5" cy="-387" rx="11" ry="11"/>
<text text-anchor="middle" x="136.5" y="-384.8" font-family="Times New Roman,serif" font-size="9.00">34,Ciuonzo D 2014</text>
</a>
</g>
</g>
<!-- n32 -->
<g id="node20" class="node">
<title>n32</title>
<g id="a_node20"><a xlink:href="32" xlink:title="33,Schoenecker S 2013&#10;">
<ellipse fill="none" stroke="black" cx="638.5" cy="-501" rx="39" ry="39"/>
<text text-anchor="middle" x="638.5" y="-498.8" font-family="Times New Roman,serif" font-size="9.00">33,Schoenecker S 2013</text>
</a>
</g>
</g>
<!-- n37 -->
<g id="node21" class="node">
<title>n37</title>
<g id="a_node21"><a xlink:href="37" xlink:title="38,Schoenecker S 2014&#10;">
<ellipse fill="none" stroke="black" cx="530.5" cy="-387" rx="39" ry="39"/>
<text text-anchor="middle" x="530.5" y="-384.8" font-family="Times New Roman,serif" font-size="9.00">38,Schoenecker S 2014</text>
</a>
</g>
</g>
<!-- n32&#45;&gt;n37 -->
<g id="edge38" class="edge">
<title>n32&#45;&gt;n37</title>
<path fill="none" stroke="black" stroke-dasharray="5,2" d="M604.54,-464.78C589.29,-448.97 571.55,-430.57 557.26,-415.76"/>
<polygon fill="black" stroke="black" points="602.34,-467.55 611.8,-472.31 607.38,-462.69 602.34,-467.55"/>
</g>
<!-- n38 -->
<g id="node22" class="node">
<title>n38</title>
<g id="a_node22"><a xlink:href="38" xlink:title="39,Schoenecker S 2014&#10;">
<ellipse fill="none" stroke="black" cx="626.5" cy="-387" rx="39" ry="39"/>
<text text-anchor="middle" x="626.5" y="-384.8" font-family="Times New Roman,serif" font-size="9.00">39,Schoenecker S 2014</text>
</a>
</g>
</g>
<!-- n32&#45;&gt;n38 -->
<g id="edge39" class="edge">
<title>n32&#45;&gt;n38</title>
<path fill="none" stroke="black" stroke-dasharray="5,2" d="M633.36,-452C632.42,-443.27 631.46,-434.27 630.56,-425.88"/>
<polygon fill="black" stroke="black" points="629.89,-452.51 634.44,-462.08 636.85,-451.77 629.89,-452.51"/>
</g>
<!-- n41 -->
<g id="node23" class="node">
<title>n41</title>
<g id="a_node23"><a xlink:href="41" xlink:title="42,Schoenecker S 2016&#10;">
<ellipse fill="lightgrey" stroke="black" cx="555.5" cy="-243" rx="11" ry="11"/>
<text text-anchor="middle" x="555.5" y="-240.8" font-family="Times New Roman,serif" font-size="9.00">42,Schoenecker S 2016</text>
</a>
</g>
</g>
<!-- n32&#45;&gt;n41 -->
<g id="edge40" class="edge">
<title>n32&#45;&gt;n41</title>
<path fill="none" stroke="black" stroke-dasharray="5,2" d="M662.81,-457.76C677.47,-426.44 690.51,-383.24 674.5,-348 651.24,-296.79 588.92,-260.9 565.02,-248.64"/>
<polygon fill="black" stroke="black" points="659.5,-456.56 658.23,-467.08 665.78,-459.65 659.5,-456.56"/>
</g>
<!-- n37&#45;&gt;n38 -->
<g id="edge46" class="edge">
<title>n37&#45;&gt;n38</title>
<path fill="none" stroke="black" stroke-dasharray="5,2" d="M570.09,-358.65C578.92,-356.76 587.76,-357.85 596.59,-361.91"/>
<polygon fill="black" stroke="black" points="568.87,-355.37 560.5,-361.86 571.09,-362 568.87,-355.37"/>
</g>
<!-- n37&#45;&gt;n41 -->
<g id="edge47" class="edge">
<title>n37&#45;&gt;n41</title>
<path fill="none" stroke="black" stroke-dasharray="5,2" d="M538.89,-338.34C544.22,-308.08 550.67,-271.45 553.73,-254.08"/>
<polygon fill="black" stroke="black" points="535.42,-337.86 537.13,-348.32 542.31,-339.08 535.42,-337.86"/>
</g>
<!-- n43 -->
<g id="node64" class="node">
<title>n43</title>
<g id="a_node64"><a xlink:href="43" xlink:title="44,Guo YF 2016&#10;">
<ellipse fill="lightgrey" stroke="black" cx="324.5" cy="-243" rx="11" ry="11"/>
<text text-anchor="middle" x="324.5" y="-240.8" font-family="Times New Roman,serif" font-size="9.00">44,Guo YF 2016</text>
</a>
</g>
</g>
<!-- n37&#45;&gt;n43 -->
<g id="edge48" class="edge">
<title>n37&#45;&gt;n43</title>
<path fill="none" stroke="black" stroke-dasharray="5,2" d="M492.41,-355.36C489.09,-352.83 485.75,-350.35 482.5,-348 427.41,-308.18 358.11,-264.76 333.59,-249.6"/>
<polygon fill="black" stroke="black" points="490.54,-358.34 500.6,-361.67 494.81,-352.79 490.54,-358.34"/>
</g>
<!-- n38&#45;&gt;n37 -->
<g id="edge49" class="edge">
<title>n38&#45;&gt;n37</title>
<path fill="none" stroke="black" stroke-dasharray="5,2" d="M587.01,-415.33C578.17,-417.24 569.34,-416.17 560.5,-412.14"/>
<polygon fill="black" stroke="black" points="588.24,-418.61 596.59,-412.09 586,-411.98 588.24,-418.61"/>
</g>
<!-- n38&#45;&gt;n41 -->
<g id="edge50" class="edge">
<title>n38&#45;&gt;n41</title>
<path fill="none" stroke="black" stroke-dasharray="5,2" d="M604.78,-342.55C588.98,-310.97 568.88,-270.77 560.03,-253.06"/>
<polygon fill="black" stroke="black" points="601.71,-344.25 609.31,-351.63 607.97,-341.12 601.71,-344.25"/>
</g>
<!-- n38&#45;&gt;n43 -->
<g id="edge51" class="edge">
<title>n38&#45;&gt;n43</title>
<path fill="none" stroke="black" stroke-dasharray="5,2" d="M589.32,-354.96C585.75,-352.47 582.11,-350.11 578.5,-348 489.86,-296.17 370.46,-257.9 334.9,-247.09"/>
<polygon fill="black" stroke="black" points="587.34,-357.84 597.48,-360.92 591.46,-352.19 587.34,-357.84"/>
</g>
<!-- n21 -->
<g id="node24" class="node">
<title>n21</title>
<g id="a_node24"><a xlink:href="21" xlink:title="22,Bordonaro SV 2012&#10;">
<ellipse fill="none" stroke="black" cx="1243.5" cy="-608" rx="32" ry="32"/>
<text text-anchor="middle" x="1243.5" y="-605.8" font-family="Times New Roman,serif" font-size="9.00">22,Bordonaro SV 2012</text>
</a>
</g>
</g>
<!-- n29 -->
<g id="node25" class="node">
<title>n29</title>
<g id="a_node25"><a xlink:href="29" xlink:title="30,Bordonaro SV 2013&#10;">
<ellipse fill="none" stroke="black" cx="1213.5" cy="-501" rx="22.5" ry="22.5"/>
<text text-anchor="middle" x="1213.5" y="-498.8" font-family="Times New Roman,serif" font-size="9.00">30,Bordonaro SV 2013</text>
</a>
</g>
</g>
<!-- n21&#45;&gt;n29 -->
<g id="edge31" class="edge">
<title>n21&#45;&gt;n29</title>
<path fill="none" stroke="black" stroke-dasharray="5,2" d="M1232.14,-567.24C1227.81,-552.1 1223.06,-535.46 1219.43,-522.77"/>
<polygon fill="black" stroke="black" points="1228.79,-568.26 1234.9,-576.91 1235.52,-566.33 1228.79,-568.26"/>
</g>
<!-- n47 -->
<g id="node26" class="node">
<title>n47</title>
<g id="a_node26"><a xlink:href="47" xlink:title="48,Bordonaro SV 2019&#10;">
<ellipse fill="lightgrey" stroke="black" cx="1108.5" cy="-69" rx="11" ry="11"/>
<text text-anchor="middle" x="1108.5" y="-66.8" font-family="Times New Roman,serif" font-size="9.00">48,Bordonaro SV 2019</text>
</a>
</g>
</g>
<!-- n21&#45;&gt;n47 -->
<g id="edge32" class="edge">
<title>n21&#45;&gt;n47</title>
<path fill="none" stroke="black" stroke-dasharray="5,2" d="M1249.76,-566.27C1255.94,-522.37 1264.5,-450.41 1264.5,-388 1264.5,-388 1264.5,-388 1264.5,-184 1264.5,-141.57 1231.66,-141.16 1197.5,-116 1193.95,-113.38 1140.07,-85.99 1117.91,-74.76"/>
<polygon fill="black" stroke="black" points="1246.28,-565.86 1248.32,-576.26 1253.21,-566.86 1246.28,-565.86"/>
</g>
<!-- n29&#45;&gt;n47 -->
<g id="edge37" class="edge">
<title>n29&#45;&gt;n47</title>
<path fill="none" stroke="black" stroke-dasharray="5,2" d="M1211.94,-468.1C1210.16,-428.97 1207.5,-360.63 1207.5,-302 1207.5,-302 1207.5,-302 1207.5,-184 1207.5,-129.74 1142.77,-88.69 1117.99,-74.97"/>
<polygon fill="black" stroke="black" points="1208.45,-468.5 1212.41,-478.33 1215.45,-468.17 1208.45,-468.5"/>
</g>
<!-- n7 -->
<g id="node27" class="node">
<title>n7</title>
<g id="a_node27"><a xlink:href="7" xlink:title="8,Willett P 2005&#10;">
<ellipse fill="none" stroke="black" cx="516.5" cy="-1161" rx="29" ry="29"/>
<text text-anchor="middle" x="516.5" y="-1158.8" font-family="Times New Roman,serif" font-size="9.00">8,Willett P 2005</text>
</a>
</g>
</g>
<!-- n26 -->
<g id="node28" class="node">
<title>n26</title>
<g id="a_node28"><a xlink:href="26" xlink:title="27,Georgy J 2012&#10;">
<ellipse fill="none" stroke="black" cx="775.5" cy="-608" rx="22.5" ry="22.5"/>
<text text-anchor="middle" x="775.5" y="-605.8" font-family="Times New Roman,serif" font-size="9.00">27,Georgy J 2012</text>
</a>
</g>
</g>
<!-- n7&#45;&gt;n26 -->
<g id="edge56" class="edge">
<title>n7&#45;&gt;n26</title>
<path fill="none" stroke="black" stroke-dasharray="5,2" d="M541.98,-1131.19C580.34,-1084.73 648.5,-988.84 648.5,-894 648.5,-894 648.5,-894 648.5,-772 648.5,-702.4 721.43,-644.68 756.76,-620.8"/>
<polygon fill="black" stroke="black" points="539.16,-1129.1 535.41,-1139.01 544.52,-1133.6 539.16,-1129.1"/>
</g>
<!-- n34 -->
<g id="node29" class="node">
<title>n34</title>
<g id="a_node29"><a xlink:href="34" xlink:title="35,Schoenecker S 2014&#10;">
<ellipse fill="none" stroke="black" cx="441.5" cy="-387" rx="32" ry="32"/>
<text text-anchor="middle" x="441.5" y="-384.8" font-family="Times New Roman,serif" font-size="9.00">35,Schoenecker S 2014</text>
</a>
</g>
</g>
<!-- n7&#45;&gt;n34 -->
<g id="edge57" class="edge">
<title>n7&#45;&gt;n34</title>
<path fill="none" stroke="black" stroke-dasharray="5,2" d="M511.62,-1122.09C505.41,-1070.56 495.5,-975.48 495.5,-894 495.5,-894 495.5,-894 495.5,-607 495.5,-537.1 469.25,-458.2 453.35,-416.84"/>
<polygon fill="black" stroke="black" points="508.15,-1122.6 512.84,-1132.1 515.1,-1121.75 508.15,-1122.6"/>
</g>
<!-- n46 -->
<g id="node30" class="node">
<title>n46</title>
<g id="a_node30"><a xlink:href="46" xlink:title="47,Luo JH 2018&#10;">
<ellipse fill="lightgrey" stroke="black" cx="851.5" cy="-127" rx="11" ry="11"/>
<text text-anchor="middle" x="851.5" y="-124.8" font-family="Times New Roman,serif" font-size="9.00">47,Luo JH 2018</text>
</a>
</g>
</g>
<!-- n26&#45;&gt;n46 -->
<g id="edge36" class="edge">
<title>n26&#45;&gt;n46</title>
<path fill="none" stroke="black" stroke-dasharray="5,2" d="M777.15,-575.21C779.22,-532.6 782.5,-454.63 782.5,-388 782.5,-388 782.5,-388 782.5,-242 782.5,-195.27 825.46,-151.31 843.58,-134.84"/>
<polygon fill="black" stroke="black" points="773.66,-575.09 776.66,-585.25 780.65,-575.43 773.66,-575.09"/>
</g>
<!-- n34&#45;&gt;n37 -->
<g id="edge41" class="edge">
<title>n34&#45;&gt;n37</title>
<path fill="none" stroke="black" stroke-dasharray="5,2" d="M484.08,-387C486.42,-387 488.76,-387 491.1,-387"/>
<polygon fill="black" stroke="black" points="483.83,-383.5 473.83,-387 483.83,-390.5 483.83,-383.5"/>
</g>
<!-- n34&#45;&gt;n41 -->
<g id="edge42" class="edge">
<title>n34&#45;&gt;n41</title>
<path fill="none" stroke="black" stroke-dasharray="5,2" d="M467.57,-353.53C494.21,-320.35 533.77,-271.07 549.1,-251.97"/>
<polygon fill="black" stroke="black" points="464.63,-351.6 461.1,-361.59 470.09,-355.98 464.63,-351.6"/>
</g>
<!-- n17 -->
<g id="node31" class="node">
<title>n17</title>
<g id="a_node31"><a xlink:href="17" xlink:title="18,Georgescu R 2009&#10;">
<ellipse fill="lightgrey" stroke="black" cx="224.5" cy="-687" rx="11" ry="11"/>
<text text-anchor="middle" x="224.5" y="-684.8" font-family="Times New Roman,serif" font-size="9.00">18,Georgescu R 2009</text>
</a>
</g>
</g>
<!-- n2 -->
<g id="node32" class="node">
<title>n2</title>
<g id="a_node32"><a xlink:href="2" xlink:title="3,Rao SK 2001&#10;">
<ellipse fill="lightgrey" stroke="black" cx="1169.5" cy="-1330.5" rx="11" ry="11"/>
<text text-anchor="middle" x="1169.5" y="-1328.3" font-family="Times New Roman,serif" font-size="9.00">3,Rao SK 2001</text>
</a>
</g>
</g>
<!-- n1 -->
<g id="node33" class="node">
<title>n1</title>
<g id="a_node33"><a xlink:href="1" xlink:title="2,Rago C 1998&#10;">
<ellipse fill="lightgrey" stroke="black" cx="1169.5" cy="-1400" rx="11" ry="11"/>
<text text-anchor="middle" x="1169.5" y="-1397.8" font-family="Times New Roman,serif" font-size="9.00">2,Rago C 1998</text>
</a>
</g>
</g>
<!-- n18 -->
<g id="node34" class="node">
<title>n18</title>
<g id="a_node34"><a xlink:href="18" xlink:title="19,Rodningsby A 2009&#10;">
<ellipse fill="lightgrey" stroke="black" cx="1252.5" cy="-687" rx="11" ry="11"/>
<text text-anchor="middle" x="1252.5" y="-684.8" font-family="Times New Roman,serif" font-size="9.00">19,Rodningsby A 2009</text>
</a>
</g>
</g>
<!-- n30 -->
<g id="node35" class="node">
<title>n30</title>
<g id="a_node35"><a xlink:href="30" xlink:title="31,Ristic B 2013&#10;">
<ellipse fill="lightgrey" stroke="black" cx="1303.5" cy="-501" rx="11" ry="11"/>
<text text-anchor="middle" x="1303.5" y="-498.8" font-family="Times New Roman,serif" font-size="9.00">31,Ristic B 2013</text>
</a>
</g>
</g>
<!-- n16 -->
<g id="node36" class="node">
<title>n16</title>
<g id="a_node36"><a xlink:href="16" xlink:title="17,Musicki D 2008&#10;">
<ellipse fill="none" stroke="black" cx="1361.5" cy="-773" rx="32" ry="32"/>
<text text-anchor="middle" x="1361.5" y="-770.8" font-family="Times New Roman,serif" font-size="9.00">17,Musicki D 2008</text>
</a>
</g>
</g>
<!-- n39 -->
<g id="node37" class="node">
<title>n39</title>
<g id="a_node37"><a xlink:href="39" xlink:title="40,Radosavljevic Z 2015&#10;">
<ellipse fill="lightgrey" stroke="black" cx="1342.5" cy="-301" rx="11" ry="11"/>
<text text-anchor="middle" x="1342.5" y="-298.8" font-family="Times New Roman,serif" font-size="9.00">40,Radosavljevic Z 2015</text>
</a>
</g>
</g>
<!-- n16&#45;&gt;n39 -->
<g id="edge29" class="edge">
<title>n16&#45;&gt;n39</title>
<path fill="none" stroke="black" stroke-dasharray="5,2" d="M1354.11,-731.35C1348.77,-698.46 1342.5,-650.9 1342.5,-609 1342.5,-609 1342.5,-609 1342.5,-500 1342.5,-428.16 1342.5,-341.65 1342.5,-312.31"/>
<polygon fill="black" stroke="black" points="1350.7,-732.19 1355.8,-741.48 1357.61,-731.04 1350.7,-732.19"/>
</g>
<!-- n44 -->
<g id="node38" class="node">
<title>n44</title>
<g id="a_node38"><a xlink:href="44" xlink:title="45,Lee EH 2017&#10;">
<ellipse fill="lightgrey" stroke="black" cx="1381.5" cy="-185" rx="11" ry="11"/>
<text text-anchor="middle" x="1381.5" y="-182.8" font-family="Times New Roman,serif" font-size="9.00">45,Lee EH 2017</text>
</a>
</g>
</g>
<!-- n16&#45;&gt;n44 -->
<g id="edge30" class="edge">
<title>n16&#45;&gt;n44</title>
<path fill="none" stroke="black" stroke-dasharray="5,2" d="M1369.28,-731.36C1374.9,-698.49 1381.5,-650.93 1381.5,-609 1381.5,-609 1381.5,-609 1381.5,-300 1381.5,-261.6 1381.5,-215.93 1381.5,-196.06"/>
<polygon fill="black" stroke="black" points="1365.78,-731.04 1367.5,-741.49 1372.68,-732.25 1365.78,-731.04"/>
</g>
<!-- n27 -->
<g id="node39" class="node">
<title>n27</title>
<g id="a_node39"><a xlink:href="27" xlink:title="28,Song XF 2012&#10;">
<ellipse fill="lightgrey" stroke="black" cx="266.5" cy="-608" rx="11" ry="11"/>
<text text-anchor="middle" x="266.5" y="-605.8" font-family="Times New Roman,serif" font-size="9.00">28,Song XF 2012</text>
</a>
</g>
</g>
<!-- n25 -->
<g id="node40" class="node">
<title>n25</title>
<g id="a_node40"><a xlink:href="25" xlink:title="26,Song TL 2012&#10;">
<ellipse fill="lightgrey" stroke="black" cx="1420.5" cy="-608" rx="11" ry="11"/>
<text text-anchor="middle" x="1420.5" y="-605.8" font-family="Times New Roman,serif" font-size="9.00">26,Song TL 2012</text>
</a>
</g>
</g>
<!-- n28 -->
<g id="node41" class="node">
<title>n28</title>
<g id="a_node41"><a xlink:href="28" xlink:title="29,Musicki D 2012&#10;">
<ellipse fill="lightgrey" stroke="black" cx="1460.5" cy="-608" rx="11" ry="11"/>
<text text-anchor="middle" x="1460.5" y="-605.8" font-family="Times New Roman,serif" font-size="9.00">29,Musicki D 2012</text>
</a>
</g>
</g>
<!-- n40 -->
<g id="node42" class="node">
<title>n40</title>
<g id="a_node42"><a xlink:href="40" xlink:title="41,Kim J 2016&#10;">
<ellipse fill="lightgrey" stroke="black" cx="1420.5" cy="-243" rx="11" ry="11"/>
<text text-anchor="middle" x="1420.5" y="-240.8" font-family="Times New Roman,serif" font-size="9.00">41,Kim J 2016</text>
</a>
</g>
</g>
<!-- n20 -->
<g id="node43" class="node">
<title>n20</title>
<g id="a_node43"><a xlink:href="20" xlink:title="21,Wang XZ 2009&#10;">
<ellipse fill="lightgrey" stroke="black" cx="1420.5" cy="-687" rx="11" ry="11"/>
<text text-anchor="middle" x="1420.5" y="-684.8" font-family="Times New Roman,serif" font-size="9.00">21,Wang XZ 2009</text>
</a>
</g>
</g>
<!-- n14 -->
<g id="node44" class="node">
<title>n14</title>
<g id="a_node44"><a xlink:href="14" xlink:title="15,Isaac A 2007&#10;">
<ellipse fill="lightgrey" stroke="black" cx="1201.5" cy="-893" rx="11" ry="11"/>
<text text-anchor="middle" x="1201.5" y="-890.8" font-family="Times New Roman,serif" font-size="9.00">15,Isaac A 2007</text>
</a>
</g>
</g>
<!-- n49 -->
<g id="node45" class="node">
<title>n49</title>
<g id="a_node45"><a xlink:href="49" xlink:title="50,Oh R 2020&#10;">
<ellipse fill="lightgrey" stroke="black" cx="58.5" cy="-11" rx="11" ry="11"/>
<text text-anchor="middle" x="58.5" y="-8.8" font-family="Times New Roman,serif" font-size="9.00">50,Oh R 2020</text>
</a>
</g>
</g>
<!-- n24 -->
<g id="node46" class="node">
<title>n24</title>
<g id="a_node46"><a xlink:href="24" xlink:title="25,Chen X 2012&#10;">
<ellipse fill="lightgrey" stroke="black" cx="1500.5" cy="-608" rx="11" ry="11"/>
<text text-anchor="middle" x="1500.5" y="-605.8" font-family="Times New Roman,serif" font-size="9.00">25,Chen X 2012</text>
</a>
</g>
</g>
<!-- n10 -->
<g id="node47" class="node">
<title>n10</title>
<g id="a_node47"><a xlink:href="10" xlink:title="11,Pulford GW 2005&#10;">
<ellipse fill="none" stroke="black" cx="1175.5" cy="-1161" rx="22.5" ry="22.5"/>
<text text-anchor="middle" x="1175.5" y="-1158.8" font-family="Times New Roman,serif" font-size="9.00">11,Pulford GW 2005</text>
</a>
</g>
</g>
<!-- n45 -->
<g id="node48" class="node">
<title>n45</title>
<g id="a_node48"><a xlink:href="45" xlink:title="46,Ferri G 2017&#10;">
<ellipse fill="lightgrey" stroke="black" cx="1105.5" cy="-185" rx="11" ry="11"/>
<text text-anchor="middle" x="1105.5" y="-182.8" font-family="Times New Roman,serif" font-size="9.00">46,Ferri G 2017</text>
</a>
</g>
</g>
<!-- n10&#45;&gt;n45 -->
<g id="edge14" class="edge">
<title>n10&#45;&gt;n45</title>
<path fill="none" stroke="black" stroke-dasharray="5,2" d="M1172.94,-1128.14C1169.15,-1078.25 1162.5,-978.64 1162.5,-894 1162.5,-894 1162.5,-894 1162.5,-300 1162.5,-255.74 1127.71,-211.06 1112.49,-193.63"/>
<polygon fill="black" stroke="black" points="1169.46,-1128.59 1173.72,-1138.3 1176.44,-1128.06 1169.46,-1128.59"/>
</g>
<!-- n31 -->
<g id="node49" class="node">
<title>n31</title>
<g id="a_node49"><a xlink:href="31" xlink:title="32,Ristic B 2013&#10;">
<ellipse fill="lightgrey" stroke="black" cx="1420.5" cy="-501" rx="11" ry="11"/>
<text text-anchor="middle" x="1420.5" y="-498.8" font-family="Times New Roman,serif" font-size="9.00">32,Ristic B 2013</text>
</a>
</g>
</g>
<!-- n35 -->
<g id="node50" class="node">
<title>n35</title>
<g id="a_node50"><a xlink:href="35" xlink:title="36,Bordonaro S 2014&#10;">
<ellipse fill="none" stroke="black" cx="1032.5" cy="-387" rx="22.5" ry="22.5"/>
<text text-anchor="middle" x="1032.5" y="-384.8" font-family="Times New Roman,serif" font-size="9.00">36,Bordonaro S 2014</text>
</a>
</g>
</g>
<!-- n35&#45;&gt;n47 -->
<g id="edge43" class="edge">
<title>n35&#45;&gt;n47</title>
<path fill="none" stroke="black" stroke-dasharray="5,2" d="M1039.98,-354.89C1056.65,-285.6 1096.13,-121.45 1106.15,-79.76"/>
<polygon fill="black" stroke="black" points="1036.54,-354.23 1037.6,-364.78 1043.35,-355.87 1036.54,-354.23"/>
</g>
<!-- n11 -->
<g id="node51" class="node">
<title>n11</title>
<g id="a_node51"><a xlink:href="11" xlink:title="12,Wadhams P 2006&#10;">
<ellipse fill="lightgrey" stroke="black" cx="1201.5" cy="-1033.5" rx="11" ry="11"/>
<text text-anchor="middle" x="1201.5" y="-1031.3" font-family="Times New Roman,serif" font-size="9.00">12,Wadhams P 2006</text>
</a>
</g>
</g>
<!-- n48 -->
<g id="node52" class="node">
<title>n48</title>
<g id="a_node52"><a xlink:href="48" xlink:title="49,Sahoo A 2019&#10;">
<ellipse fill="lightgrey" stroke="black" cx="1148.5" cy="-69" rx="11" ry="11"/>
<text text-anchor="middle" x="1148.5" y="-66.8" font-family="Times New Roman,serif" font-size="9.00">49,Sahoo A 2019</text>
</a>
</g>
</g>
<!-- n42 -->
<g id="node53" class="node">
<title>n42</title>
<g id="a_node53"><a xlink:href="42" xlink:title="43,Li XY 2016&#10;">
<ellipse fill="lightgrey" stroke="black" cx="1460.5" cy="-243" rx="11" ry="11"/>
<text text-anchor="middle" x="1460.5" y="-240.8" font-family="Times New Roman,serif" font-size="9.00">43,Li XY 2016</text>
</a>
</g>
</g>
<!-- n22 -->
<g id="node54" class="node">
<title>n22</title>
<g id="a_node54"><a xlink:href="22" xlink:title="23,Georgescu R 2012&#10;">
<ellipse fill="none" stroke="black" cx="877.5" cy="-608" rx="22.5" ry="22.5"/>
<text text-anchor="middle" x="877.5" y="-605.8" font-family="Times New Roman,serif" font-size="9.00">23,Georgescu R 2012</text>
</a>
</g>
</g>
<!-- n23 -->
<g id="node55" class="node">
<title>n23</title>
<g id="a_node55"><a xlink:href="23" xlink:title="24,Georgescu R 2012&#10;">
<ellipse fill="none" stroke="black" cx="950.5" cy="-608" rx="32" ry="32"/>
<text text-anchor="middle" x="950.5" y="-605.8" font-family="Times New Roman,serif" font-size="9.00">24,Georgescu R 2012</text>
</a>
</g>
</g>
<!-- n22&#45;&gt;n23 -->
<g id="edge33" class="edge">
<title>n22&#45;&gt;n23</title>
<path fill="none" stroke="black" stroke-dasharray="5,2" d="M910.23,-608C912.88,-608 915.52,-608 918.17,-608"/>
<polygon fill="black" stroke="black" points="910.03,-604.5 900.03,-608 910.03,-611.5 910.03,-604.5"/>
</g>
<!-- n23&#45;&gt;n46 -->
<g id="edge35" class="edge">
<title>n23&#45;&gt;n46</title>
<path fill="none" stroke="black" stroke-dasharray="5,2" d="M930.3,-570.53C908.69,-528.03 877.5,-455.07 877.5,-388 877.5,-388 877.5,-388 877.5,-242 877.5,-202.42 862.41,-156.99 855.23,-137.59"/>
<polygon fill="black" stroke="black" points="927.31,-572.36 935.02,-579.63 933.52,-569.14 927.31,-572.36"/>
</g>
<!-- n36 -->
<g id="node63" class="node">
<title>n36</title>
<g id="a_node63"><a xlink:href="36" xlink:title="37,Braca P 2014&#10;">
<ellipse fill="none" stroke="black" cx="959.5" cy="-387" rx="32" ry="32"/>
<text text-anchor="middle" x="959.5" y="-384.8" font-family="Times New Roman,serif" font-size="9.00">37,Braca P 2014</text>
</a>
</g>
</g>
<!-- n23&#45;&gt;n36 -->
<g id="edge34" class="edge">
<title>n23&#45;&gt;n36</title>
<path fill="none" stroke="black" stroke-dasharray="5,2" d="M952.2,-565.59C953.95,-523.04 956.63,-457.75 958.21,-419.32"/>
<polygon fill="black" stroke="black" points="948.7,-565.49 951.79,-575.62 955.7,-565.77 948.7,-565.49"/>
</g>
<!-- n0 -->
<g id="node56" class="node">
<title>n0</title>
<g id="a_node56"><a xlink:href="0" xlink:title="1,Kirubarajan T 1996&#10;">
<ellipse fill="none" stroke="black" cx="381.5" cy="-1528" rx="81" ry="81"/>
<text text-anchor="middle" x="381.5" y="-1525.8" font-family="Times New Roman,serif" font-size="9.00">1,Kirubarajan T 1996</text>
</a>
</g>
</g>
<!-- n0&#45;&gt;n33 -->
<g id="edge5" class="edge">
<title>n0&#45;&gt;n33</title>
<path fill="none" stroke="black" stroke-dasharray="5,2" d="M292.76,-1506.28C208.79,-1480.77 95.5,-1428.41 95.5,-1331.5 95.5,-1331.5 95.5,-1331.5 95.5,-607 95.5,-525 123.62,-428.62 133.28,-397.92"/>
<polygon fill="black" stroke="black" points="292.01,-1509.7 302.59,-1509.18 293.99,-1502.99 292.01,-1509.7"/>
</g>
<!-- n0&#45;&gt;n32 -->
<g id="edge4" class="edge">
<title>n0&#45;&gt;n32</title>
<path fill="none" stroke="black" stroke-dasharray="5,2" d="M462.24,-1485.14C514.74,-1451.53 573.5,-1398.87 573.5,-1331.5 573.5,-1331.5 573.5,-1331.5 573.5,-1249.5 573.5,-1091.5 572.5,-1052 572.5,-894 572.5,-894 572.5,-894 572.5,-686 572.5,-630.51 599.42,-570.85 618.88,-534.97"/>
<polygon fill="black" stroke="black" points="460.17,-1482.31 453.54,-1490.57 463.88,-1488.24 460.17,-1482.31"/>
</g>
<!-- n0&#45;&gt;n38 -->
<g id="edge7" class="edge">
<title>n0&#45;&gt;n38</title>
<path fill="none" stroke="black" stroke-dasharray="5,2" d="M405.83,-1439.88C413.26,-1406.29 419.5,-1367.38 419.5,-1331.5 419.5,-1331.5 419.5,-1331.5 419.5,-1249.5 419.5,-1195.28 423.93,-1181.22 438.5,-1129 468.82,-1020.33 534.5,-1006.82 534.5,-894 534.5,-894 534.5,-894 534.5,-686 534.5,-586.37 582.03,-476.01 608.76,-421.82"/>
<polygon fill="black" stroke="black" points="402.41,-1439.13 403.6,-1449.66 409.24,-1440.69 402.41,-1439.13"/>
</g>
<!-- n0&#45;&gt;n7 -->
<g id="edge12" class="edge">
<title>n0&#45;&gt;n7</title>
<path fill="none" stroke="black" stroke-dasharray="5,2" d="M430.71,-1451.03C437.98,-1437.99 444.89,-1424.34 450.5,-1411 482.9,-1333.9 503.18,-1236.58 511.76,-1189.71"/>
<polygon fill="black" stroke="black" points="427.54,-1449.53 425.63,-1459.95 433.62,-1452.99 427.54,-1449.53"/>
</g>
<!-- n0&#45;&gt;n17 -->
<g id="edge3" class="edge">
<title>n0&#45;&gt;n17</title>
<path fill="none" stroke="black" stroke-dasharray="5,2" d="M306.33,-1476.48C263.99,-1441.48 219.5,-1390.63 219.5,-1331.5 219.5,-1331.5 219.5,-1331.5 219.5,-1249.5 219.5,-1026.74 223.48,-754.3 224.34,-698.33"/>
<polygon fill="black" stroke="black" points="304.22,-1479.28 314.2,-1482.83 308.62,-1473.83 304.22,-1479.28"/>
</g>
<!-- n4 -->
<g id="node57" class="node">
<title>n4</title>
<g id="a_node57"><a xlink:href="4" xlink:title="5,Niu RX 2001&#10;">
<ellipse fill="none" stroke="black" cx="330.5" cy="-1330.5" rx="22.5" ry="22.5"/>
<text text-anchor="middle" x="330.5" y="-1328.3" font-family="Times New Roman,serif" font-size="9.00">5,Niu RX 2001</text>
</a>
</g>
</g>
<!-- n0&#45;&gt;n4 -->
<g id="edge8" class="edge">
<title>n0&#45;&gt;n4</title>
<path fill="none" stroke="black" stroke-dasharray="5,2" d="M358.68,-1439.54C350.3,-1407.39 341.52,-1373.74 336.03,-1352.7"/>
<polygon fill="black" stroke="black" points="355.36,-1440.66 361.27,-1449.45 362.13,-1438.89 355.36,-1440.66"/>
</g>
<!-- n5 -->
<g id="node58" class="node">
<title>n5</title>
<g id="a_node58"><a xlink:href="5" xlink:title="6,Kirubarajan T 2004&#10;">
<ellipse fill="none" stroke="black" cx="1136.5" cy="-1250.5" rx="21.5" ry="21.5"/>
<text text-anchor="middle" x="1136.5" y="-1248.3" font-family="Times New Roman,serif" font-size="9.00">6,Kirubarajan T 2004</text>
</a>
</g>
</g>
<!-- n0&#45;&gt;n5 -->
<g id="edge10" class="edge">
<title>n0&#45;&gt;n5</title>
<path fill="none" stroke="black" stroke-dasharray="5,2" d="M472.82,-1524.63C645.65,-1518.21 1011.29,-1494.84 1100.5,-1411 1139.18,-1374.65 1140.56,-1306.3 1138.49,-1272.09"/>
<polygon fill="black" stroke="black" points="472.59,-1521.13 462.72,-1524.99 472.84,-1528.13 472.59,-1521.13"/>
</g>
<!-- n6 -->
<g id="node59" class="node">
<title>n6</title>
<g id="a_node59"><a xlink:href="6" xlink:title="7,Blanding WR 2005&#10;">
<ellipse fill="none" stroke="black" cx="279.5" cy="-1161" rx="32" ry="32"/>
<text text-anchor="middle" x="279.5" y="-1158.8" font-family="Times New Roman,serif" font-size="9.00">7,Blanding WR 2005</text>
</a>
</g>
</g>
<!-- n0&#45;&gt;n6 -->
<g id="edge11" class="edge">
<title>n0&#45;&gt;n6</title>
<path fill="none" stroke="black" stroke-dasharray="5,2" d="M336.69,-1447.96C322.18,-1418.95 307.51,-1385.29 298.5,-1353 283.18,-1298.11 279.85,-1231.33 279.33,-1193.03"/>
<polygon fill="black" stroke="black" points="333.74,-1449.88 341.39,-1457.21 339.98,-1446.71 333.74,-1449.88"/>
</g>
<!-- n9 -->
<g id="node60" class="node">
<title>n9</title>
<g id="a_node60"><a xlink:href="9" xlink:title="10,Bar&#45;Shalom Y 2005&#10;">
<ellipse fill="lightgrey" stroke="black" cx="458.5" cy="-1161" rx="11" ry="11"/>
<text text-anchor="middle" x="458.5" y="-1158.8" font-family="Times New Roman,serif" font-size="9.00">10,Bar&#45;Shalom Y 2005</text>
</a>
</g>
</g>
<!-- n0&#45;&gt;n9 -->
<g id="edge13" class="edge">
<title>n0&#45;&gt;n9</title>
<path fill="none" stroke="black" stroke-dasharray="5,2" d="M421.82,-1445.75C426.35,-1434.29 430.43,-1422.49 433.5,-1411 457.58,-1320.75 458.85,-1206.46 458.63,-1172.17"/>
<polygon fill="black" stroke="black" points="418.47,-1444.71 417.92,-1455.29 424.94,-1447.36 418.47,-1444.71"/>
</g>
<!-- n13 -->
<g id="node61" class="node">
<title>n13</title>
<g id="a_node61"><a xlink:href="13" xlink:title="14,Blanding WR 2007&#10;">
<ellipse fill="none" stroke="black" cx="381.5" cy="-893" rx="45" ry="45"/>
<text text-anchor="middle" x="381.5" y="-890.8" font-family="Times New Roman,serif" font-size="9.00">14,Blanding WR 2007</text>
</a>
</g>
</g>
<!-- n0&#45;&gt;n13 -->
<g id="edge1" class="edge">
<title>n0&#45;&gt;n13</title>
<path fill="none" stroke="black" stroke-dasharray="5,2" d="M381.5,-1436.53C381.5,-1403.48 381.5,-1365.8 381.5,-1331.5 381.5,-1331.5 381.5,-1331.5 381.5,-1160 381.5,-1081.95 381.5,-991.03 381.5,-938.24"/>
<polygon fill="black" stroke="black" points="378,-1436.63 381.5,-1446.63 385,-1436.63 378,-1436.63"/>
</g>
<!-- n15 -->
<g id="node62" class="node">
<title>n15</title>
<g id="a_node62"><a xlink:href="15" xlink:title="16,Blanding WR 2008&#10;">
<ellipse fill="none" stroke="black" cx="162.5" cy="-773" rx="39" ry="39"/>
<text text-anchor="middle" x="162.5" y="-770.8" font-family="Times New Roman,serif" font-size="9.00">16,Blanding WR 2008</text>
</a>
</g>
</g>
<!-- n0&#45;&gt;n15 -->
<g id="edge2" class="edge">
<title>n0&#45;&gt;n15</title>
<path fill="none" stroke="black" stroke-dasharray="5,2" d="M298.51,-1490.02C239.81,-1457.59 171.5,-1404.23 171.5,-1331.5 171.5,-1331.5 171.5,-1331.5 171.5,-1032.5 171.5,-954.14 167.32,-862.5 164.66,-812.09"/>
<polygon fill="black" stroke="black" points="297,-1493.18 307.46,-1494.85 300.32,-1487.02 297,-1493.18"/>
</g>
<!-- n0&#45;&gt;n36 -->
<g id="edge6" class="edge">
<title>n0&#45;&gt;n36</title>
<path fill="none" stroke="black" stroke-dasharray="5,2" d="M472.37,-1520.91C662.85,-1505.65 1086.5,-1457.53 1086.5,-1331.5 1086.5,-1331.5 1086.5,-1331.5 1086.5,-686 1086.5,-577.18 1013.94,-462.61 978.51,-413.15"/>
<polygon fill="black" stroke="black" points="472.07,-1517.42 462.37,-1521.7 472.62,-1524.4 472.07,-1517.42"/>
</g>
<!-- n0&#45;&gt;n43 -->
<g id="edge9" class="edge">
<title>n0&#45;&gt;n43</title>
<path fill="none" stroke="black" stroke-dasharray="5,2" d="M291.4,-1512.36C195.52,-1491.03 57.5,-1441.27 57.5,-1331.5 57.5,-1331.5 57.5,-1331.5 57.5,-386 57.5,-268.13 262.84,-247.79 313.37,-244.57"/>
<polygon fill="black" stroke="black" points="290.9,-1515.83 301.41,-1514.52 292.37,-1508.99 290.9,-1515.83"/>
</g>
<!-- n4&#45;&gt;n43 -->
<g id="edge52" class="edge">
<title>n4&#45;&gt;n43</title>
<path fill="none" stroke="black" stroke-dasharray="5,2" d="M329.05,-1297.75C327.22,-1258.21 323.89,-1188.6 320.5,-1129 314.56,-1024.51 305.5,-998.66 305.5,-894 305.5,-894 305.5,-894 305.5,-386 305.5,-336.01 317.21,-276.98 322.25,-253.92"/>
<polygon fill="black" stroke="black" points="325.56,-1298.01 329.52,-1307.84 332.55,-1297.69 325.56,-1298.01"/>
</g>
<!-- n5&#45;&gt;n45 -->
<g id="edge53" class="edge">
<title>n5&#45;&gt;n45</title>
<path fill="none" stroke="black" stroke-dasharray="5,2" d="M1133.73,-1219.03C1130.18,-1177.39 1124.5,-1100.36 1124.5,-1034.5 1124.5,-1034.5 1124.5,-1034.5 1124.5,-300 1124.5,-260.87 1113.48,-215.21 1108.22,-195.67"/>
<polygon fill="black" stroke="black" points="1130.25,-1219.41 1134.6,-1229.07 1137.22,-1218.8 1130.25,-1219.41"/>
</g>
<!-- n6&#45;&gt;n27 -->
<g id="edge55" class="edge">
<title>n6&#45;&gt;n27</title>
<path fill="none" stroke="black" stroke-dasharray="5,2" d="M276.48,-1118.69C272.93,-1066.41 267.5,-973.58 267.5,-894 267.5,-894 267.5,-894 267.5,-772 267.5,-714.27 266.86,-645.04 266.61,-619.3"/>
<polygon fill="black" stroke="black" points="273.01,-1119.16 277.19,-1128.9 279.99,-1118.68 273.01,-1119.16"/>
</g>
<!-- n6&#45;&gt;n13 -->
<g id="edge54" class="edge">
<title>n6&#45;&gt;n13</title>
<path fill="none" stroke="black" stroke-dasharray="5,2" d="M294.31,-1121.37C313.3,-1071.84 346.1,-986.31 365.6,-935.46"/>
<polygon fill="black" stroke="black" points="291.02,-1120.18 290.71,-1130.77 297.56,-1122.69 291.02,-1120.18"/>
</g>
<!-- n13&#45;&gt;n37 -->
<g id="edge23" class="edge">
<title>n13&#45;&gt;n37</title>
<path fill="none" stroke="black" stroke-dasharray="5,2" d="M409.54,-845.69C431.2,-805.48 457.5,-744.92 457.5,-688 457.5,-688 457.5,-688 457.5,-607 457.5,-538.27 490.26,-463.34 511.89,-421.36"/>
<polygon fill="black" stroke="black" points="406.47,-844 404.72,-854.45 412.6,-847.38 406.47,-844"/>
</g>
<!-- n13&#45;&gt;n41 -->
<g id="edge24" class="edge">
<title>n13&#45;&gt;n41</title>
<path fill="none" stroke="black" stroke-dasharray="5,2" d="M381.5,-837.75C381.5,-796.65 381.5,-738.77 381.5,-688 381.5,-688 381.5,-688 381.5,-386 381.5,-301 507.68,-257.79 545.14,-246.84"/>
<polygon fill="black" stroke="black" points="378,-837.83 381.5,-847.83 385,-837.83 378,-837.83"/>
</g>
<!-- n13&#45;&gt;n34 -->
<g id="edge22" class="edge">
<title>n13&#45;&gt;n34</title>
<path fill="none" stroke="black" stroke-dasharray="5,2" d="M396.73,-839.7C407.3,-798.78 419.5,-740.25 419.5,-688 419.5,-688 419.5,-688 419.5,-607 419.5,-539.56 429.96,-461.01 436.45,-418.73"/>
<polygon fill="black" stroke="black" points="393.32,-838.88 394.15,-849.45 400.09,-840.67 393.32,-838.88"/>
</g>
<!-- n13&#45;&gt;n43 -->
<g id="edge25" class="edge">
<title>n13&#45;&gt;n43</title>
<path fill="none" stroke="black" stroke-dasharray="5,2" d="M366.27,-839.7C355.7,-798.78 343.5,-740.25 343.5,-688 343.5,-688 343.5,-688 343.5,-386 343.5,-336.01 331.79,-276.98 326.75,-253.92"/>
<polygon fill="black" stroke="black" points="362.91,-840.67 368.85,-849.45 369.68,-838.88 362.91,-840.67"/>
</g>
<!-- n15&#45;&gt;n33 -->
<g id="edge27" class="edge">
<title>n15&#45;&gt;n33</title>
<path fill="none" stroke="black" stroke-dasharray="5,2" d="M159.22,-723.53C153.1,-633.22 140.3,-444.18 137.19,-398.23"/>
<polygon fill="black" stroke="black" points="155.74,-724.04 159.91,-733.78 162.73,-723.56 155.74,-724.04"/>
</g>
<!-- n15&#45;&gt;n17 -->
<g id="edge26" class="edge">
<title>n15&#45;&gt;n17</title>
<path fill="none" stroke="black" stroke-dasharray="5,2" d="M191.19,-733.13C201.44,-719.25 212.02,-704.91 218.43,-696.22"/>
<polygon fill="black" stroke="black" points="188.36,-731.07 185.23,-741.2 193.99,-735.23 188.36,-731.07"/>
</g>
<!-- n15&#45;&gt;n43 -->
<g id="edge28" class="edge">
<title>n15&#45;&gt;n43</title>
<path fill="none" stroke="black" stroke-dasharray="5,2" d="M169.24,-724.11C173.22,-691.69 177.5,-647.85 177.5,-609 177.5,-609 177.5,-609 177.5,-386 177.5,-309.71 281.18,-261.41 314.4,-247.89"/>
<polygon fill="black" stroke="black" points="165.74,-723.85 167.96,-734.21 172.69,-724.73 165.74,-723.85"/>
</g>
<!-- n36&#45;&gt;n46 -->
<g id="edge45" class="edge">
<title>n36&#45;&gt;n46</title>
<path fill="none" stroke="black" stroke-dasharray="5,2" d="M951.64,-345.48C941.93,-301.29 922.74,-229.45 891.5,-174 882.77,-158.51 868.27,-143.54 859.34,-135.08"/>
<polygon fill="black" stroke="black" points="948.22,-346.24 953.74,-355.28 955.07,-344.77 948.22,-346.24"/>
</g>
<!-- n36&#45;&gt;n45 -->
<g id="edge44" class="edge">
<title>n36&#45;&gt;n45</title>
<path fill="none" stroke="black" stroke-dasharray="5,2" d="M983.91,-352.55C1018.48,-305.2 1079.67,-221.38 1099.27,-194.53"/>
<polygon fill="black" stroke="black" points="981.06,-350.53 977.99,-360.67 986.71,-354.66 981.06,-350.53"/>
</g>
<!-- n3 -->
<g id="node65" class="node">
<title>n3</title>
<g id="a_node65"><a xlink:href="3" xlink:title="4,Bar&#45;Shalom Y 2001&#10;">
<ellipse fill="lightgrey" stroke="black" cx="1209.5" cy="-1330.5" rx="11" ry="11"/>
<text text-anchor="middle" x="1209.5" y="-1328.3" font-family="Times New Roman,serif" font-size="9.00">4,Bar&#45;Shalom Y 2001</text>
</a>
</g>
</g>
<!-- n12 -->
<g id="node66" class="node">
<title>n12</title>
<g id="a_node66"><a xlink:href="12" xlink:title="13,Coraluppi S 2006&#10;">
<ellipse fill="none" stroke="black" cx="775.5" cy="-1033.5" rx="59.5" ry="59.5"/>
<text text-anchor="middle" x="775.5" y="-1031.3" font-family="Times New Roman,serif" font-size="9.00">13,Coraluppi S 2006</text>
</a>
</g>
</g>
<!-- n12&#45;&gt;n32 -->
<g id="edge16" class="edge">
<title>n12&#45;&gt;n32</title>
<path fill="none" stroke="black" stroke-dasharray="5,2" d="M732.07,-978.3C723.74,-965.68 715.94,-951.86 710.5,-938 683.59,-869.42 686.5,-847.67 686.5,-774 686.5,-774 686.5,-774 686.5,-686 686.5,-632.85 667.51,-573.78 653.42,-537.25"/>
<polygon fill="black" stroke="black" points="729.36,-980.55 737.89,-986.84 735.14,-976.61 729.36,-980.55"/>
</g>
<!-- n12&#45;&gt;n47 -->
<g id="edge21" class="edge">
<title>n12&#45;&gt;n47</title>
<path fill="none" stroke="black" stroke-dasharray="5,2" d="M755.16,-966.66C740.95,-914.84 724.5,-840.5 724.5,-774 724.5,-774 724.5,-774 724.5,-686 724.5,-515.3 731.5,-472.7 731.5,-302 731.5,-302 731.5,-302 731.5,-184 731.5,-105.36 1035.81,-76.01 1097.62,-70.86"/>
<polygon fill="black" stroke="black" points="751.82,-967.71 757.88,-976.4 758.56,-965.82 751.82,-967.71"/>
</g>
<!-- n12&#45;&gt;n26 -->
<g id="edge15" class="edge">
<title>n12&#45;&gt;n26</title>
<path fill="none" stroke="black" stroke-dasharray="5,2" d="M775.5,-963.52C775.5,-865.71 775.5,-691.8 775.5,-630.84"/>
<polygon fill="black" stroke="black" points="772,-963.61 775.5,-973.61 779,-963.61 772,-963.61"/>
</g>
<!-- n12&#45;&gt;n34 -->
<g id="edge17" class="edge">
<title>n12&#45;&gt;n34</title>
<path fill="none" stroke="black" stroke-dasharray="5,2" d="M723.54,-986.89C675.17,-939.14 610.5,-859.33 610.5,-774 610.5,-774 610.5,-774 610.5,-686 610.5,-568.83 510.42,-455.52 464.29,-409.52"/>
<polygon fill="black" stroke="black" points="721.24,-989.53 730.85,-993.99 726.11,-984.51 721.24,-989.53"/>
</g>
<!-- n12&#45;&gt;n46 -->
<g id="edge20" class="edge">
<title>n12&#45;&gt;n46</title>
<path fill="none" stroke="black" stroke-dasharray="5,2" d="M795.84,-966.66C810.05,-914.84 826.5,-840.5 826.5,-774 826.5,-774 826.5,-774 826.5,-242 826.5,-202.49 841.01,-157.03 847.92,-137.6"/>
<polygon fill="black" stroke="black" points="792.44,-965.82 793.12,-976.4 799.18,-967.71 792.44,-965.82"/>
</g>
<!-- n12&#45;&gt;n45 -->
<g id="edge19" class="edge">
<title>n12&#45;&gt;n45</title>
<path fill="none" stroke="black" stroke-dasharray="5,2" d="M842.67,-1013.53C884.73,-998.76 937.57,-974.53 973.5,-938 1029.71,-880.86 1048.5,-854.15 1048.5,-774 1048.5,-774 1048.5,-774 1048.5,-686 1048.5,-552.48 1086.5,-521.52 1086.5,-388 1086.5,-388 1086.5,-388 1086.5,-300 1086.5,-260.87 1097.52,-215.21 1102.78,-195.67"/>
<polygon fill="black" stroke="black" points="841.38,-1010.27 833.05,-1016.81 843.64,-1016.9 841.38,-1010.27"/>
</g>
<!-- n12&#45;&gt;n36 -->
<g id="edge18" class="edge">
<title>n12&#45;&gt;n36</title>
<path fill="none" stroke="black" stroke-dasharray="5,2" d="M836.68,-999.83C906.31,-957.7 1010.5,-877.39 1010.5,-774 1010.5,-774 1010.5,-774 1010.5,-607 1010.5,-537.51 985.84,-458.78 970.82,-417.25"/>
<polygon fill="black" stroke="black" points="834.75,-996.91 827.95,-1005.03 838.33,-1002.92 834.75,-996.91"/>
</g>
<!-- n8 -->
<g id="node67" class="node">
<title>n8</title>
<g id="a_node67"><a xlink:href="8" xlink:title="9,Bar&#45;Shalom Y 2005&#10;">
<ellipse fill="lightgrey" stroke="black" cx="1227.5" cy="-1161" rx="11" ry="11"/>
<text text-anchor="middle" x="1227.5" y="-1158.8" font-family="Times New Roman,serif" font-size="9.00">9,Bar&#45;Shalom Y 2005</text>
</a>
</g>
</g>
<!-- n19 -->
<g id="node68" class="node">
<title>n19</title>
<g id="a_node68"><a xlink:href="19" xlink:title="20,Blanding WR 2009&#10;">
<ellipse fill="lightgrey" stroke="black" cx="1460.5" cy="-687" rx="11" ry="11"/>
<text text-anchor="middle" x="1460.5" y="-684.8" font-family="Times New Roman,serif" font-size="9.00">20,Blanding WR 2009</text>
</a>
</g>
</g>
</g>
</svg>
